<svg width="371" height="378" viewBox="0 0 371 378" fill="none" xmlns="http://www.w3.org/2000/svg">
<circle cx="155.5" cy="222.489" r="110" transform="rotate(37.8814 155.5 222.489)" fill="#620000" stroke="black"/>
<path d="M321.494 128.005C313.413 138.392 303.039 145.391 292.819 148.326C282.598 151.261 272.569 150.124 265.098 144.312C257.626 138.499 254.058 129.058 254.389 118.429C254.72 107.801 258.953 96.0241 267.034 85.6368C275.115 75.2496 285.488 68.2504 295.709 65.3158C305.93 62.3811 315.959 63.5174 323.43 69.3299C330.902 75.1424 334.47 84.5837 334.139 95.2126C333.808 105.841 329.575 117.618 321.494 128.005Z" fill="#620000" stroke="black"/>
<path d="M340.515 228.956C332.434 239.344 322.06 246.343 311.84 249.277C301.619 252.212 291.59 251.076 284.118 245.263C276.647 239.451 273.079 230.01 273.41 219.381C273.741 208.752 277.974 196.976 286.054 186.588C294.135 176.201 304.509 169.202 314.73 166.267C324.951 163.333 334.98 164.469 342.451 170.281C349.923 176.094 353.49 185.535 353.16 196.164C352.829 206.792 348.596 218.569 340.515 228.956Z" fill="#620000" stroke="black"/>
<path d="M206.259 38.3565C198.178 48.7438 193.945 60.5204 193.614 71.1488C193.283 81.7777 196.851 91.219 204.323 97.0315C211.794 102.844 221.823 103.98 232.044 101.046C242.265 98.111 252.639 91.1118 260.719 80.7246C268.8 70.3374 273.033 58.5607 273.364 47.9323C273.695 37.3034 270.127 27.8621 262.656 22.0496C255.184 16.2371 245.155 15.1008 234.934 18.0355C224.714 20.9702 214.34 27.9693 206.259 38.3565Z" fill="#620000" stroke="black"/>
<path d="M103.73 44.7475C95.6493 55.1347 91.4164 66.9114 91.0855 77.5398C90.7546 88.1687 94.3225 97.61 101.794 103.422C109.265 109.235 119.294 110.371 129.515 107.437C139.736 104.502 150.11 97.5028 158.191 87.1156C166.271 76.7283 170.504 64.9517 170.835 54.3233C171.166 43.6944 167.598 34.2531 160.127 28.4406C152.655 22.6281 142.627 21.4917 132.405 24.4265C122.185 27.3611 111.811 34.3603 103.73 44.7475Z" fill="#620000" stroke="black"/>
</svg>
