<svg width="301" height="335" viewBox="0 0 301 335" fill="none" xmlns="http://www.w3.org/2000/svg">
<circle cx="150.5" cy="224.5" r="110" fill="black" stroke="black"/>
<path d="M223.5 48C223.5 61.1603 219.61 73.0546 213.345 81.6465C207.079 90.2389 198.466 95.5 189 95.5C179.534 95.5 170.921 90.2389 164.655 81.6465C158.39 73.0546 154.5 61.1603 154.5 48C154.5 34.8397 158.39 22.9454 164.655 14.3535C170.921 5.76106 179.534 0.5 189 0.5C198.466 0.5 207.079 5.76106 213.345 14.3535C219.61 22.9454 223.5 34.8397 223.5 48Z" fill="black" stroke="black"/>
<path d="M300.5 116C300.5 129.16 296.61 141.055 290.345 149.647C284.079 158.239 275.466 163.5 266 163.5C256.534 163.5 247.921 158.239 241.655 149.647C235.39 141.055 231.5 129.16 231.5 116C231.5 102.84 235.39 90.9454 241.655 82.3535C247.921 73.7611 256.534 68.5 266 68.5C275.466 68.5 284.079 73.7611 290.345 82.3535C296.61 90.9454 300.5 102.84 300.5 116Z" fill="black" stroke="black"/>
<path d="M77.5 48C77.5 61.1603 81.3903 73.0546 87.6553 81.6465C93.9206 90.2389 102.534 95.5 112 95.5C121.466 95.5 130.079 90.2389 136.345 81.6465C142.61 73.0546 146.5 61.1603 146.5 48C146.5 34.8397 142.61 22.9454 136.345 14.3535C130.079 5.76106 121.466 0.5 112 0.5C102.534 0.5 93.9206 5.76106 87.6553 14.3535C81.3903 22.9454 77.5 34.8397 77.5 48Z" fill="black" stroke="black"/>
<path d="M0.5 116C0.5 129.16 4.39029 141.055 10.6553 149.647C16.9206 158.239 25.5338 163.5 35 163.5C44.4662 163.5 53.0794 158.239 59.3447 149.647C65.6097 141.055 69.5 129.16 69.5 116C69.5 102.84 65.6097 90.9454 59.3447 82.3535C53.0794 73.7611 44.4662 68.5 35 68.5C25.5338 68.5 16.9206 73.7611 10.6553 82.3535C4.39029 90.9454 0.5 102.84 0.5 116Z" fill="black" stroke="black"/>
</svg>
